<svg xmlns="http://www.w3.org/2000/svg" xmlns:xlink="http://www.w3.org/1999/xlink" x="0px" y="0px" width="16px" height="64px" viewBox="0 0 16 64">
<g transform="translate(0, 16)">
	<path class="st0" d="M8,0C3.6,0,0,3.6,0,8s3.6,8,8,8s8-3.6,8-8S12.4,0,8,0z M8,10c-1.1,0-2-0.9-2-2s0.9-2,2-2s2,0.9,2,2
		S9.1,10,8,10z M8,2c0.9,0,1.8,0.2,2.6,0.6L9,4.2c-0.7-0.3-1.3-0.3-2,0L5.4,2.6C6.2,2.2,7.1,2,8,2z M2,8c0-0.9,0.2-1.8,0.6-2.6
		L4.2,7c-0.3,0.7-0.3,1.3,0,2l-1.6,1.6C2.2,9.8,2,8.9,2,8z M8,14c-0.9,0-1.8-0.2-2.6-0.6L7,11.8c0.8,0.2,1.3,0.2,2.1,0l1.6,1.6
		C9.8,13.8,8.9,14,8,14z M13.4,10.6L11.8,9c0.2-0.8,0.2-1.3,0-2.1l1.6-1.6C13.8,6.2,14,7.1,14,8S13.8,9.8,13.4,10.6z"/>
</g>
<g transform="translate(0, 32)">
		<path d="M0,5.9c0.5,0,1.1,0,1.6,0c1.4,0,2.7,0,4.1,0c0.2,0,0.3,0,0.5-0.1c2.5-1,5-1.9,7.5-2.9c0.1,0,0.1,0,0.2,0
			c0,0.1-0.1,0.2-0.2,0.3c-1.3,1.1-2.6,2.2-4,3.2C9.5,6.6,9.5,6.7,9.8,6.8c0.1,0,0.2,0.1,0.3,0.1c0.2,0.1,0.2,0.2,0.3,0.4
			c0.1,1.1,0.3,2.2,0.7,3.3c0.1,0.2,0.2,0.5,0.2,0.8c0,0.1,0,0.2-0.1,0.2c-0.6,0-1.2,0-1.7,0c-0.1,0-0.2,0-0.3-0.1
			c-0.1-0.2-0.3-0.4-0.4-0.6C8.6,10.5,8.3,10.2,8,10C7.4,9.7,7,9.3,6.8,8.6c0-0.1-0.1-0.1-0.2-0.1c-0.8,0-1.4,0.3-2,0.7
			c-0.2,0.1-0.3,0.1-0.4,0c-1.3-1-2.6-2-4-3C0.2,6.1,0,6,0,5.9z M9.9,8.3c0-0.3,0-0.5-0.2-0.7C9.6,7.4,9.5,7.3,9.3,7.3
			c-0.1,0-0.1,0.2-0.1,0.3c0,0.1,0,0.1,0,0.2c0,0.1,0,0.2,0.1,0.2C9.5,8.1,9.6,8.2,9.9,8.3z"/>
		<path d="M12.5,15.2c-0.3-0.1-0.5-0.3-0.8-0.5c-1-0.7-2.1-1.5-3.1-2.3c-0.3-0.2-0.5-0.4-0.8-0.6c-0.1-0.1-0.2-0.1-0.3,0
			c-1,0.7-1.9,1.4-2.9,2.1c-0.5,0.4-1,0.7-1.5,1.1c-0.1,0.1-0.2,0.1-0.3,0.2c-0.1-0.1,0-0.2,0-0.3c0.5-1.6,1.1-3.2,1.6-4.9
			c0.1-0.4,0.4-0.5,0.7-0.7c0.3-0.2,0.6-0.3,1-0.4c0.1,0,0.2,0,0.3,0.1c0.3,0.5,0.7,1,1.2,1.2c0.3,0.2,0.6,0.4,0.8,0.8
			c0.1,0.2,0.2,0.4,0.4,0.6c0.2,0.2,0.4,0.3,0.7,0.3c0.6,0,1.3,0,1.9,0c0.1,0,0.2,0,0.3,0.2c0.3,0.9,0.6,1.9,0.9,2.8
			C12.5,15.1,12.5,15.2,12.5,15.2L12.5,15.2z"/>
		<path d="M16,5.9c-0.7,0.5-1.3,0.9-1.9,1.3c-0.9,0.6-1.8,1.3-2.7,1.9c-0.2,0.1-0.2,0-0.2-0.1c-0.1-0.6-0.2-1.2-0.3-1.8
			c0-0.3-0.1-0.5-0.3-0.6c-0.1-0.1-0.1-0.1,0-0.2c0.2-0.2,0.4-0.3,0.6-0.5c0.1-0.1,0.1-0.1,0.2-0.1c1.5,0,3,0,4.4,0
			C15.9,5.9,15.9,5.9,16,5.9z"/>
		<path d="M7.7,0.4c0,0.1,0.1,0.1,0.1,0.2c0.4,1.1,0.7,2.2,1.1,3.3C9,4,9,4.1,8.8,4.2C8,4.5,7.2,4.8,6.4,5.1c-0.1,0-0.1,0.1-0.2,0
			c-0.1,0,0-0.1,0-0.2c0.5-1.5,1-3,1.4-4.4C7.7,0.5,7.7,0.4,7.7,0.4z"/>
		<path d="M12.5,15.2C12.5,15.2,12.5,15.2,12.5,15.2C12.5,15.2,12.5,15.2,12.5,15.2C12.5,15.2,12.5,15.2,12.5,15.2z"/>
</g>
<g transform="translate(0, 0)">
	<path class="st0" d="M8,0C3.6,0,0,3.6,0,8s3.6,8,8,8s8-3.6,8-8S12.4,0,8,0z M13.9,9H8.7L6.9,4.6L5.1,5.4L6.5,9H2.1C2,8.7,2,8.3,2,8
		c0-3.3,2.7-6,6-6s6,2.7,6,6C14,8.3,14,8.7,13.9,9z"/>
</g>
	<g transform="translate(0, 48)">
		<path d="M0,5.9c0.5,0,1.1,0,1.6,0c1.4,0,2.7,0,4.1,0c0.2,0,0.3,0,0.5-0.1c2.5-1,5-1.9,7.5-2.9c0.1,0,0.1,0,0.2,0
			c0,0.1-0.1,0.2-0.2,0.3c-1.3,1.1-2.6,2.2-4,3.2C9.5,6.6,9.5,6.7,9.8,6.8c0.1,0,0.2,0.1,0.3,0.1c0.2,0.1,0.2,0.2,0.3,0.4
			c0.1,1.1,0.3,2.2,0.7,3.3c0.1,0.2,0.2,0.5,0.2,0.8c0,0.1,0,0.2-0.1,0.2c-0.6,0-1.2,0-1.7,0c-0.1,0-0.2,0-0.3-0.1
			c-0.1-0.2-0.3-0.4-0.4-0.6C8.6,10.5,8.3,10.2,8,10C7.4,9.7,7,9.3,6.8,8.6c0-0.1-0.1-0.1-0.2-0.1c-0.8,0-1.4,0.3-2,0.7
			c-0.2,0.1-0.3,0.1-0.4,0c-1.3-1-2.6-2-4-3C0.2,6.1,0,6,0,5.9z M9.9,8.3c0-0.3,0-0.5-0.2-0.7C9.6,7.4,9.5,7.3,9.3,7.3
			c-0.1,0-0.1,0.2-0.1,0.3c0,0.1,0,0.1,0,0.2c0,0.1,0,0.2,0.1,0.2C9.5,8.1,9.6,8.2,9.9,8.3z"/>
		<path d="M12.5,15.2c-0.3-0.1-0.5-0.3-0.8-0.5c-1-0.7-2.1-1.5-3.1-2.3c-0.3-0.2-0.5-0.4-0.8-0.6c-0.1-0.1-0.2-0.1-0.3,0
			c-1,0.7-1.9,1.4-2.9,2.1c-0.5,0.4-1,0.7-1.5,1.1c-0.1,0.1-0.2,0.1-0.3,0.2c-0.1-0.1,0-0.2,0-0.3c0.5-1.6,1.1-3.2,1.6-4.9
			c0.1-0.4,0.4-0.5,0.7-0.7c0.3-0.2,0.6-0.3,1-0.4c0.1,0,0.2,0,0.3,0.1c0.3,0.5,0.7,1,1.2,1.2c0.3,0.2,0.6,0.4,0.8,0.8
			c0.1,0.2,0.2,0.4,0.4,0.6c0.2,0.2,0.4,0.3,0.7,0.3c0.6,0,1.3,0,1.9,0c0.1,0,0.2,0,0.3,0.2c0.3,0.9,0.6,1.9,0.9,2.8
			C12.5,15.1,12.5,15.2,12.5,15.2L12.5,15.2z"/>
		<path d="M16,5.9c-0.7,0.5-1.3,0.9-1.9,1.3c-0.9,0.6-1.8,1.3-2.7,1.9c-0.2,0.1-0.2,0-0.2-0.1c-0.1-0.6-0.2-1.2-0.3-1.8
			c0-0.3-0.1-0.5-0.3-0.6c-0.1-0.1-0.1-0.1,0-0.2c0.2-0.2,0.4-0.3,0.6-0.5c0.1-0.1,0.1-0.1,0.2-0.1c1.5,0,3,0,4.4,0
			C15.9,5.9,15.9,5.9,16,5.9z"/>
		<path d="M7.7,0.4c0,0.1,0.1,0.1,0.1,0.2c0.4,1.1,0.7,2.2,1.1,3.3C9,4,9,4.1,8.8,4.2C8,4.5,7.2,4.8,6.4,5.1c-0.1,0-0.1,0.1-0.2,0
			c-0.1,0,0-0.1,0-0.2c0.5-1.5,1-3,1.4-4.4C7.7,0.5,7.7,0.4,7.7,0.4z"/>
		<path d="M12.5,15.2C12.5,15.2,12.5,15.2,12.5,15.2C12.5,15.2,12.5,15.2,12.5,15.2C12.5,15.2,12.5,15.2,12.5,15.2z"/>
	</g>
</svg>